<svg width="176" height="32" viewBox="0 0 176 32" fill="none" xmlns="http://www.w3.org/2000/svg">
<g clip-path="url(#clip0_84_21)">
<path d="M43.9141 3.00732H40.0637V24.0806H54.7541V20.7691H43.9141V3.00732Z" fill="#6DB7F2"/>
<path d="M68.2898 8.84778C67.0852 8.16572 65.713 7.82422 64.1729 7.82422C62.593 7.82422 61.1862 8.1756 59.9524 8.87789C58.7181 9.58065 57.7505 10.5487 57.0499 11.783C56.3487 13.0173 55.9984 14.4374 55.9984 16.0428C55.9984 17.6285 56.3585 19.0434 57.0795 20.2876C57.8 21.5322 58.8167 22.5106 60.1301 23.2227C61.443 23.9354 62.978 24.2915 64.7356 24.2915C66.1175 24.2915 67.3466 24.0657 68.4231 23.6141C69.499 23.1625 70.3926 22.5153 71.1035 21.6723L69.1191 19.3543C68.5661 19.9564 67.9344 20.3981 67.2235 20.679C66.5127 20.9603 65.713 21.1004 64.8245 21.1004C63.7976 21.1004 62.8892 20.9 62.0997 20.4983C61.3097 20.0971 60.6975 19.5251 60.2634 18.7824C59.9895 18.3146 59.8023 17.8027 59.7011 17.247H72.1105C72.1299 17.0664 72.1447 16.8759 72.1549 16.675C72.1646 16.4746 72.1697 16.294 72.1697 16.1331C72.1697 14.4473 71.824 12.9825 71.1331 11.7378C70.4417 10.4937 69.4939 9.53032 68.2898 8.84778ZM60.1893 13.1076C60.5744 12.3954 61.1075 11.8385 61.7887 11.4368C62.4699 11.0356 63.2645 10.8347 64.1729 10.8347C65.0614 10.8347 65.8463 11.0356 66.5275 11.4368C67.2087 11.8385 67.7465 12.3902 68.1417 13.0925C68.4208 13.5894 68.5957 14.1415 68.6677 14.7483H59.6692C59.7523 14.1426 59.9256 13.5957 60.1893 13.1076Z" fill="#6DB7F2"/>
<path d="M82.121 21.1904C81.4297 21.1904 80.8919 20.9796 80.5069 20.5582C80.1219 20.1367 79.9294 19.545 79.9294 18.782V11.1354H84.1647V8.1249H79.9294V4.45215H76.2271V8.1249H73.6208V11.1354H76.2271V18.8723C76.2271 20.6588 76.701 22.0083 77.6488 22.9213C78.5965 23.8348 79.9391 24.2911 81.6768 24.2911C82.3478 24.2911 82.9994 24.2008 83.6316 24.0202C84.2633 23.8395 84.7964 23.5686 85.2309 23.2073L84.1943 20.5281C83.6413 20.9698 82.9504 21.1904 82.121 21.1904Z" fill="#6DB7F2"/>
<path d="M101.627 10.1831V7.82422H88.0663V10.7516H97.0161L87.8985 21.7502V24.0807H101.963V21.1819H92.4886L101.627 10.1831Z" fill="#6DB7F2"/>
<path d="M109.71 8.21521C110.371 7.5529 111.151 7.04112 112.05 6.6799C112.948 6.31864 113.94 6.13801 115.026 6.13801C116.112 6.13801 117.119 6.34404 118.047 6.75512C118.975 7.16671 119.814 7.78386 120.565 8.60657L123.053 6.22832C122.085 5.06458 120.9 4.18637 119.498 3.59415C118.096 3.0024 116.546 2.70605 114.849 2.70605C113.249 2.70605 111.778 2.97229 110.435 3.50383C109.092 4.03584 107.918 4.78847 106.911 5.7617C105.904 6.73536 105.124 7.88405 104.571 9.20867C104.018 10.5333 103.742 11.9783 103.742 13.5437C103.742 15.1092 104.018 16.5542 104.571 17.8788C105.124 19.2034 105.899 20.3526 106.896 21.3258C107.893 22.2995 109.068 23.0521 110.421 23.5836C111.773 24.1152 113.239 24.3814 114.819 24.3814C116.537 24.3814 118.096 24.0804 119.498 23.4783C120.9 22.8762 122.085 22.0031 123.053 20.8592L120.565 18.4508C119.814 19.2938 118.975 19.9213 118.047 20.3324C117.119 20.744 116.112 20.9495 115.026 20.9495C113.94 20.9495 112.948 20.7689 112.05 20.4076C111.151 20.0464 110.371 19.5346 109.71 18.8723C109.048 18.21 108.535 17.4273 108.17 16.5241C107.804 15.621 107.622 14.6275 107.622 13.5437C107.622 12.46 107.804 11.4665 108.17 10.5634C108.535 9.66024 109.048 8.87751 109.71 8.21521Z" fill="#6DB7F2"/>
<path d="M138.765 8.57644C137.767 8.07501 136.637 7.82382 135.373 7.82382C133.991 7.82382 132.772 8.09994 131.716 8.65171C131.089 8.97943 130.551 9.39069 130.101 9.88428V1.74268H126.399V24.0803H130.101V15.9521C130.101 14.8683 130.284 13.9704 130.649 13.2577C131.014 12.5455 131.533 12.0084 132.204 11.6471C132.875 11.2859 133.645 11.1053 134.514 11.1053C135.699 11.1053 136.622 11.4566 137.284 12.1589C137.945 12.8616 138.276 13.9252 138.276 15.35V24.0803H141.978V14.8683C141.978 13.2427 141.692 11.9133 141.119 10.8795C140.546 9.84602 139.761 9.07835 138.765 8.57644Z" fill="#6DB7F2"/>
<path d="M156.466 9.49504C155.212 8.38116 153.44 7.82422 151.15 7.82422C149.886 7.82422 148.666 7.9898 147.492 8.32095C146.317 8.6521 145.305 9.14883 144.456 9.81114L145.907 12.5506C146.5 12.0492 147.225 11.6578 148.084 11.3766C148.943 11.0958 149.817 10.9551 150.705 10.9551C152.028 10.9551 153.016 11.2613 153.667 11.8733C154.319 12.4857 154.645 13.3437 154.645 14.4473V14.6881H150.557C148.958 14.6881 147.674 14.8988 146.707 15.3203C145.739 15.7418 145.043 16.3138 144.619 17.0363C144.194 17.7588 143.982 18.5716 143.982 19.4748C143.982 20.3981 144.224 21.226 144.708 21.9583C145.191 22.6912 145.878 23.2632 146.766 23.6743C147.655 24.0854 148.691 24.2915 149.876 24.2915C151.278 24.2915 152.438 24.0309 153.356 23.5087C153.988 23.1498 154.487 22.691 154.852 22.1323V24.0807H158.347V14.658C158.347 12.33 157.72 10.6089 156.466 9.49504ZM153.09 20.9198C152.369 21.3413 151.554 21.552 150.646 21.552C149.698 21.552 148.958 21.3516 148.425 20.9499C147.892 20.5487 147.625 20.0068 147.625 19.3242C147.625 18.7221 147.842 18.2155 148.277 17.8039C148.711 17.3928 149.56 17.1868 150.824 17.1868H154.645V19.0533C154.329 19.8765 153.81 20.4983 153.09 20.9198Z" fill="#6DB7F2"/>
<path d="M171.556 20.5281C171.003 20.9698 170.312 21.1904 169.483 21.1904C168.792 21.1904 168.254 20.9796 167.869 20.5582C167.484 20.1367 167.291 19.545 167.291 18.782V11.1354H171.527V8.1249H167.291V4.45215H163.589V8.1249H160.983V11.1354H163.589V18.8723C163.589 20.6588 164.063 22.0083 165.011 22.9213C165.958 23.8348 167.301 24.2911 169.039 24.2911C169.71 24.2911 170.361 24.2008 170.993 24.0202C171.625 23.8395 172.158 23.5686 172.593 23.2073L171.556 20.5281Z" fill="#6DB7F2"/>
<path d="M27.2178 0H12.6307C9.53542 0 7.02618 2.55049 7.02618 5.69584V15.4611C12.7515 15.6128 15.7449 14.2296 16.2283 13.9847C12.9837 15.7509 9.74709 16.3819 7.02618 16.5031C2.99892 16.6821 0.105042 15.742 0 15.7083C0.100303 15.7685 2.81805 17.3581 7.02618 17.9072C10.3679 18.3431 14.6495 18.1231 19.3062 15.958C25.4596 13.0976 28.6039 8.35631 30.1606 4.87057C30.1606 4.87057 26.4279 21.9388 7.53087 22.6373C8.41467 24.6033 10.3655 25.9689 12.6307 25.9689H22.5203L17.3281 27.8534V32L23.3782 25.9689H27.2178C30.313 25.9689 32.8223 23.4184 32.8223 20.2722V5.69584C32.8223 2.55049 30.313 0 27.2178 0Z" fill="#6DB7F2"/>
<path d="M171.325 4.53258V2.2457H170.44V1.81934H172.705V2.2457H171.821V4.53258H171.325V4.53258Z" fill="#231F20"/>
<path d="M173.079 4.53258V1.81934H173.487L174.654 3.79999H174.44L175.588 1.81934H175.996L176 4.53258H175.531L175.527 2.56741H175.626L174.65 4.22247H174.429L173.437 2.56741H173.552V4.53258H173.079Z" fill="#231F20"/>
</g>
<defs>
<clipPath id="clip0_84_21">
<rect width="176" height="32" fill="white"/>
</clipPath>
</defs>
</svg>
