<svg width="62" height="62" viewBox="0 0 62 62" fill="none" xmlns="http://www.w3.org/2000/svg">
<g clip-path="url(#clip0_84_363)">
<path d="M31 62C13.8792 62 0 48.1208 0 31C0 13.8792 13.8792 0 31 0C48.1208 0 62 13.8792 62 31C62 48.1208 48.1208 62 31 62Z" fill="#F8F9FA"/>
<path d="M46.0083 25.8992L33.6558 13.5469L24.6325 22.5701L36.9849 34.9224L46.0083 25.8992Z" fill="#FFE7FE"/>
<path d="M36.4399 35.9968L24.0874 23.6445L15.0641 32.6677L27.4166 45.02L36.4399 35.9968Z" fill="white"/>
<path d="M38.7631 43.0686H30.9463C31.6748 42.3401 45.0889 28.926 45.8481 28.1667C47.3853 26.6295 47.3853 24.1284 45.8481 22.5913L37.4096 14.1528C35.8725 12.6157 33.3715 12.6158 31.8343 14.1528L15.1556 30.8316C13.615 32.3722 13.6146 34.8661 15.1556 36.4069L23.594 44.8454C24.3545 45.6058 25.3508 45.9893 26.3496 45.9974C26.3603 45.9976 26.3708 45.9991 26.3817 45.9991H38.7631C39.5723 45.9991 40.2284 45.343 40.2284 44.5339C40.2283 43.7247 39.5723 43.0686 38.7631 43.0686ZM33.9064 16.2251C34.3009 15.8306 34.9428 15.8304 35.3375 16.2251L43.7759 24.6635C44.1704 25.058 44.1704 25.6999 43.7759 26.0945L36.4726 33.3978L26.6032 23.5283L33.9064 16.2251ZM25.6662 42.7732L17.2278 34.3348C16.8323 33.9395 16.8322 33.2993 17.2278 32.9038L24.531 25.6005L34.4005 35.4699L27.0972 42.7732C26.7042 43.1662 26.0612 43.1683 25.6662 42.7732Z" fill="#F2A985"/>
<path d="M46.5619 43.0684H44.0849C43.2756 43.0684 42.6196 43.7244 42.6196 44.5336C42.6196 45.3428 43.2757 45.9988 44.0849 45.9988H46.5619C47.3711 45.9988 48.0272 45.3428 48.0272 44.5336C48.0272 43.7244 47.3713 43.0684 46.5619 43.0684Z" fill="#FFE1FD"/>
<path d="M44.0609 39.5668C44.0609 38.7576 43.4048 38.1016 42.5956 38.1016H40.1186C39.3094 38.1016 38.6533 38.7576 38.6533 39.5668C38.6533 40.376 39.3094 41.032 40.1186 41.032H42.5956C43.4049 41.0321 44.0609 40.376 44.0609 39.5668Z" fill="#FFE1FD"/>
</g>
<defs>
<clipPath id="clip0_84_363">
<rect width="62" height="62" fill="white"/>
</clipPath>
</defs>
</svg>
