<svg width="62" height="62" viewBox="0 0 62 62" fill="none" xmlns="http://www.w3.org/2000/svg">
<g clip-path="url(#clip0_84_431)">
<path d="M31 62C13.8792 62 0 48.1208 0 31C0 13.8792 13.8792 0 31 0C48.1208 0 62 13.8792 62 31C62 48.1208 48.1208 62 31 62Z" fill="#F8F9FA"/>
<path d="M26.8379 37.25C33.3963 37.25 38.7129 31.9334 38.7129 25.375C38.7129 18.8166 33.3963 13.5 26.8379 13.5C20.2795 13.5 14.9629 18.8166 14.9629 25.375C14.9629 31.9334 20.2795 37.25 26.8379 37.25Z" fill="#C4C4C4" stroke="#F2D455"/>
<path d="M22.2134 31.0312H17.0259V35.1874H22.2134V31.0312Z" fill="white" stroke="#F2D455"/>
<path d="M44.9004 39.2793H39.7129V43.4355H44.9004V39.2793Z" fill="#C5F6FA" stroke="#F2D455"/>
<path d="M37.1494 44.9688C42.2753 44.9688 46.4306 40.8134 46.4306 35.6875C46.4306 30.5616 42.2753 26.4062 37.1494 26.4062C32.0235 26.4062 27.8681 30.5616 27.8681 35.6875C27.8681 40.8134 32.0235 44.9688 37.1494 44.9688Z" fill="#FFF6D1"/>
<path d="M26.8364 36.7188C33.1014 36.7188 38.1802 31.64 38.1802 25.375C38.1802 19.11 33.1014 14.0312 26.8364 14.0312C20.5714 14.0312 15.4926 19.11 15.4926 25.375C15.4926 31.64 20.5714 36.7188 26.8364 36.7188Z" fill="white"/>
<path d="M21.0446 34.2368L20.9883 34.2008L20.9239 34.2186L17.4976 35.1664L18.4454 31.7402L18.4633 31.6758L18.4272 31.6194L18.1951 31.2564C17.1167 29.5691 16.5465 27.6134 16.5465 25.6006C16.5465 19.8016 21.2645 15.0836 27.0635 15.0836C32.8625 15.0836 37.5805 19.8016 37.5805 25.6006C37.5805 31.3996 32.8625 36.1176 27.0635 36.1176C25.0506 36.1176 23.0952 35.5474 21.4077 34.4689L21.0446 34.2368ZM44.4281 42.9653L41.9516 42.28L41.8865 42.262L41.8298 42.2989L41.4651 42.5362C40.0753 43.4391 38.4607 43.9164 36.7959 43.9164C33.1434 43.9164 29.9258 41.5944 28.7189 38.2431C34.4283 37.4997 38.9626 32.9654 39.7062 27.2558C43.0573 28.4629 45.3793 31.6805 45.3793 35.333C45.3793 36.9978 44.902 38.6124 43.9991 40.0022L43.7618 40.3669L43.7249 40.4236L43.7429 40.4887L44.4281 42.9653ZM47.6129 35.333C47.6129 30.4919 44.3759 26.2581 39.7962 24.939C39.4507 18.2145 33.8724 12.85 27.0635 12.85C20.0325 12.85 14.3129 18.5696 14.3129 25.6006C14.3129 27.8703 14.9114 30.0811 16.0487 32.0266L14.8351 36.4138C14.5969 37.275 15.3888 38.067 16.25 37.8288L20.6374 36.6154C22.3932 37.6417 24.3654 38.2278 26.4016 38.3328C27.7205 42.9127 31.9545 46.15 36.7959 46.15C38.7212 46.15 40.5944 45.6429 42.2448 44.6786L45.6754 45.6275C46.5366 45.8657 47.3286 45.0737 47.0904 44.2126L46.1415 40.7819C47.1057 39.1315 47.6129 37.2583 47.6129 35.333Z" fill="#F2D455" stroke="#F2D455" stroke-width="0.3"/>
<path d="M26.0192 31.4336C26.0192 32.0103 26.4867 32.4779 27.0635 32.4779C27.6402 32.4779 28.1078 32.0103 28.1078 31.4336C28.1078 30.8568 27.6402 30.3893 27.0635 30.3893C26.4867 30.3893 26.0192 30.8568 26.0192 31.4336Z" fill="#F2D455" stroke="#F2D455" stroke-width="0.155"/>
<path d="M28.3173 24.0361L26.5784 25.6277C26.2233 25.9527 26.0211 26.4119 26.0211 26.8932V27.5645C26.0211 28.1412 26.4887 28.6088 27.0654 28.6088C27.6422 28.6088 28.1097 28.1412 28.1097 27.5645V27.4844C28.1097 27.2124 28.224 26.953 28.4246 26.7693L29.7273 25.577C30.5425 24.8309 31.0101 23.7702 31.0101 22.666C31.0101 20.4907 29.2407 18.7213 27.0654 18.7213C25.2268 18.7213 23.6784 19.9854 23.2429 21.6899C23.0948 22.2698 23.5955 22.7435 24.165 22.7435C24.4556 22.7435 24.7096 22.6184 24.9213 22.4369C25.1327 22.2558 25.3055 22.0157 25.4368 21.7763C25.7525 21.2007 26.3643 20.8099 27.0654 20.8099C28.0889 20.8099 28.9215 21.6426 28.9215 22.666C28.9215 23.1933 28.7071 23.6794 28.3173 24.0361Z" fill="#F2D455" stroke="#F2D455" stroke-width="0.155"/>
</g>
<defs>
<clipPath id="clip0_84_431">
<rect width="62" height="62" fill="white"/>
</clipPath>
</defs>
</svg>
