<svg width="62" height="62" viewBox="0 0 62 62" fill="none" xmlns="http://www.w3.org/2000/svg">
<g clip-path="url(#clip0_84_392)">
<path d="M31 62C13.8792 62 0 48.1208 0 31C0 13.8792 13.8792 0 31 0C48.1208 0 62 13.8792 62 31C62 48.1208 48.1208 62 31 62Z" fill="#F8F9FA"/>
<path d="M46.2445 32.0512H46.1791C45.8796 32.0183 45.6039 31.8726 45.4079 31.6437C45.212 31.4148 45.1105 31.1199 45.1242 30.8189L45.507 23.7051C45.5128 23.5509 45.5497 23.3995 45.6153 23.2599C45.681 23.1203 45.7741 22.9954 45.8891 22.8925C46.0042 22.7897 46.1387 22.7111 46.2848 22.6615C46.4309 22.6118 46.5854 22.5921 46.7393 22.6035C46.8926 22.6118 47.0428 22.6504 47.1812 22.7168C47.3196 22.7833 47.4435 22.8765 47.5459 22.991C47.6482 23.1055 47.727 23.239 47.7776 23.384C47.8282 23.529 47.8497 23.6825 47.8409 23.8358L47.4581 30.9496C47.4412 31.2559 47.3044 31.5432 47.0773 31.7494C46.8501 31.9555 46.551 32.064 46.2445 32.0512Z" fill="#797CF2"/>
<path d="M49.7921 28.6813L43.2571 28.6159C42.9475 28.6086 42.6531 28.4805 42.4368 28.2589C42.2205 28.0373 42.0994 27.7399 42.0995 27.4303C42.1044 27.1256 42.2282 26.835 42.4445 26.6204C42.6608 26.4058 42.9524 26.2844 43.2571 26.282L49.7921 26.3473C50.1016 26.3473 50.3984 26.4703 50.6173 26.6891C50.8361 26.908 50.9591 27.2048 50.9591 27.5143C50.9591 27.8238 50.8361 28.1206 50.6173 28.3395C50.3984 28.5583 50.1016 28.6813 49.7921 28.6813Z" fill="#797CF2"/>
<path d="M14.0736 40.9856C13.8224 40.9844 13.5804 40.8913 13.3933 40.7237C13.2062 40.5561 13.087 40.3258 13.0582 40.0762C13.0295 39.8267 13.0932 39.5753 13.2373 39.3695C13.3814 39.1638 13.5959 39.018 13.8402 38.9598C18.3243 38.0268 22.8704 37.4215 27.4424 37.1486C32.5929 36.8277 37.7573 36.7934 42.9117 37.0459C43.1684 37.0806 43.4026 37.211 43.5673 37.411C43.7319 37.611 43.8149 37.8659 43.7996 38.1245C43.7842 38.3831 43.6717 38.6264 43.4845 38.8055C43.2973 38.9847 43.0494 39.0865 42.7903 39.0905C37.7197 38.8525 32.64 38.8868 27.5731 39.1932C23.1175 39.4617 18.6871 40.0514 14.3164 40.9576C14.237 40.9775 14.1554 40.987 14.0736 40.9856Z" fill="#797CF2"/>
<path d="M17.9666 45.0001C17.7334 45.0019 17.5065 44.9244 17.3233 44.7802C17.1401 44.6359 17.0113 44.4336 16.9584 44.2065C16.8996 43.9405 16.948 43.662 17.093 43.4314C17.238 43.2008 17.468 43.0365 17.7332 42.9742C21.0293 42.2871 24.3709 41.841 27.7318 41.6392C31.4598 41.3661 35.2007 41.3162 38.9347 41.4898C39.207 41.5084 39.4608 41.6344 39.6403 41.8401C39.8198 42.0458 39.9101 42.3144 39.8916 42.5868C39.873 42.8591 39.747 43.113 39.5413 43.2924C39.3356 43.4719 39.067 43.5623 38.7946 43.5437C35.154 43.3746 31.5065 43.4245 27.8718 43.6931C24.6185 43.8886 21.3832 44.316 18.1907 44.9721C18.1174 44.9904 18.0422 44.9998 17.9666 45.0001Z" fill="#797CF2"/>
<path d="M16.4169 34.852H16.2955C16.1415 34.8381 15.9918 34.7935 15.8553 34.7208C15.7188 34.648 15.5982 34.5487 15.5007 34.4286C15.4033 34.3085 15.3309 34.1701 15.2878 34.0215C15.2447 33.873 15.2318 33.7173 15.2499 33.5637L16.3329 23.1544L14.8671 24.256C14.6195 24.4417 14.3083 24.5214 14.0019 24.4776C13.6955 24.4339 13.4191 24.2702 13.2334 24.0226C13.1402 23.9005 13.0723 23.761 13.0336 23.6124C12.9949 23.4637 12.9861 23.3089 13.0079 23.1568C13.0296 23.0048 13.0813 22.8585 13.1601 22.7267C13.2389 22.5948 13.3432 22.48 13.4668 22.3888L16.725 19.9429C16.935 19.7863 17.186 19.6941 17.4474 19.6773C17.7088 19.6606 17.9695 19.7201 18.1978 19.8485C18.4261 19.977 18.6122 20.169 18.7336 20.4012C18.855 20.6333 18.9063 20.8957 18.8815 21.1565L17.5745 33.8064C17.5446 34.0928 17.4098 34.3581 17.1961 34.5511C16.9824 34.7441 16.7048 34.8513 16.4169 34.852Z" fill="#797CF2"/>
<path d="M21.6262 33.9652C21.3515 33.9664 21.0829 33.884 20.8561 33.7289C20.6293 33.5738 20.4551 33.3534 20.3566 33.097C20.251 32.8261 20.2367 32.5282 20.3159 32.2485C20.3951 31.9688 20.5635 31.7225 20.7954 31.5472C25.0898 28.1864 27.8998 24.8535 27.9465 23.0611C27.9608 22.8836 27.9308 22.7053 27.8591 22.5424C27.7874 22.3794 27.6763 22.2368 27.5358 22.1275C27.2109 21.8597 26.8298 21.6686 26.4209 21.5683C26.012 21.4681 25.5857 21.4614 25.1738 21.5487C24.2669 21.686 23.4477 22.1674 22.8866 22.893C22.8248 23.0454 22.7314 23.1831 22.6127 23.2969C22.4939 23.4108 22.3524 23.4982 22.1975 23.5535C22.0426 23.6088 21.8778 23.6308 21.7138 23.6179C21.5498 23.605 21.3904 23.5576 21.246 23.4788C21.1016 23.4 20.9755 23.2915 20.876 23.1606C20.7765 23.0296 20.7057 22.8791 20.6685 22.7189C20.6312 22.5586 20.6283 22.3923 20.6598 22.2309C20.6913 22.0695 20.7566 21.9165 20.8514 21.7821C21.2885 21.107 21.8626 20.5312 22.5365 20.0922C23.2103 19.6531 23.9689 19.3606 24.763 19.2334C25.5163 19.0837 26.2937 19.1059 27.0372 19.2983C27.7807 19.4906 28.4713 19.8482 29.0575 20.3444C29.4603 20.6818 29.7801 21.1074 29.9922 21.5881C30.2042 22.0689 30.3029 22.5921 30.2805 23.1171C30.1871 25.8244 27.2744 29.0359 24.5857 31.4445L29.1975 31.1365C29.5054 31.1233 29.8064 31.2296 30.0378 31.4331C30.2692 31.6367 30.413 31.9217 30.4392 32.2287C30.4571 32.5378 30.3525 32.8415 30.148 33.0739C29.9436 33.3063 29.6557 33.4488 29.3469 33.4704L21.7289 33.9652H21.6262Z" fill="#797CF2"/>
<path d="M35.275 33.0503C35.1196 33.0599 34.9637 33.0599 34.8083 33.0503C32.9411 32.8263 30.9806 31.1832 31.3634 27.0848C31.7648 22.7157 33.2305 20.7645 34.4068 19.8963C34.8688 19.5313 35.4038 19.2699 35.9756 19.1298C36.5474 18.9896 37.1426 18.9741 37.721 19.0841C41.3246 19.8029 41.1939 23.8733 40.6804 27.3369C40.1296 31.0245 37.5903 33.0503 35.275 33.0503ZM33.6786 27.2809C33.5013 29.26 34.0334 30.5764 35.0883 30.6977C36.1433 30.8191 37.9824 29.6241 38.3652 26.9634C39.1494 21.7074 37.8797 21.4554 37.2729 21.362C37.0132 21.3115 36.7456 21.3187 36.4891 21.3833C36.2325 21.4478 35.9933 21.568 35.7885 21.7354C35.1537 22.2116 34.0334 23.5746 33.6786 27.2809Z" fill="#797CF2"/>
</g>
<defs>
<clipPath id="clip0_84_392">
<rect width="62" height="62" fill="white"/>
</clipPath>
</defs>
</svg>
