<svg width="62" height="62" viewBox="0 0 62 62" fill="none" xmlns="http://www.w3.org/2000/svg">
<g clip-path="url(#clip0_84_383)">
<path d="M31 62C13.8792 62 0 48.1208 0 31C0 13.8792 13.8792 0 31 0C48.1208 0 62 13.8792 62 31C62 48.1208 48.1208 62 31 62Z" fill="#F8F9FA"/>
<path d="M30.5 47C37.9558 47 44 40.9558 44 33.5C44 26.0442 37.9558 20 30.5 20C23.0442 20 17 26.0442 17 33.5C17 40.9558 23.0442 47 30.5 47Z" fill="white"/>
<path d="M33.1507 19.38V16.8019H34.3275C35.1011 16.8019 35.7284 16.1746 35.7284 15.401C35.7284 14.6273 35.1012 14 34.3275 14H27.6589C26.8853 14 26.258 14.6273 26.258 15.401C26.258 16.1746 26.8853 16.8019 27.6589 16.8019H28.8357V19.38C22.1405 20.4206 17 26.2246 17 33.2069C17 40.9228 23.2774 47.2001 30.9932 47.2001C38.709 47.2001 44.9864 40.9227 44.9864 33.2069C44.9864 26.2246 39.8459 20.4206 33.1507 19.38ZM30.9932 44.3983C24.8223 44.3983 19.8019 39.3778 19.8019 33.207C19.8019 27.0362 24.8224 22.0157 30.9932 22.0157C37.164 22.0157 42.1845 27.0362 42.1845 33.207C42.1845 39.3778 37.1641 44.3983 30.9932 44.3983Z" fill="#61F2E6"/>
<path d="M32.3957 32.6241V26.024C32.3957 25.2503 31.7684 24.623 30.9947 24.623C30.221 24.623 29.5938 25.2503 29.5938 26.024V33.4323C29.5938 33.6601 29.6845 33.8785 29.8459 34.0393L33.7651 37.942C34.3135 38.488 35.2004 38.486 35.7464 37.9378C36.2923 37.3896 36.2904 36.5025 35.7423 35.9566L32.3957 32.6241Z" fill="#61F2E6"/>
</g>
<defs>
<clipPath id="clip0_84_383">
<rect width="62" height="62" fill="white"/>
</clipPath>
</defs>
</svg>
