<svg width="62" height="62" viewBox="0 0 62 62" fill="none" xmlns="http://www.w3.org/2000/svg">
<g clip-path="url(#clip0_84_406)">
<path d="M31 62C13.8792 62 0 48.1208 0 31C0 13.8792 13.8792 0 31 0C48.1208 0 62 13.8792 62 31C62 48.1208 48.1208 62 31 62Z" fill="#F8F9FA"/>
<path d="M50.9468 31.7797H17.1143V44.2354H50.9468V31.7797Z" fill="white"/>
<path d="M39.4316 28.3812H28.6299C27.5253 28.3812 26.6299 29.2767 26.6299 30.3812V42.2339C26.6299 43.3385 27.5253 44.2339 28.6299 44.2339H39.4316C40.5362 44.2339 41.4316 43.3385 41.4316 42.2339V30.3812C41.4316 29.2767 40.5362 28.3812 39.4316 28.3812Z" fill="#FFF0E8"/>
<path d="M47.3679 30.4665H43.6557C43.1505 30.4665 42.6614 30.5356 42.1958 30.6628C41.2775 28.8543 39.4027 27.6117 37.2424 27.6117H30.6807C28.5203 27.6117 26.6455 28.8543 25.7272 30.6628C25.2617 30.5356 24.7725 30.4665 24.2673 30.4665H20.5551C17.492 30.4665 15 32.963 15 36.0317V41.9768C15 43.818 16.4952 45.3159 18.3331 45.3159H39.8867C38.751 43.8299 43.1505 40.3343 50.0862 40.3343L43.5585 31.1585C43.5585 28.0898 46.4144 34.654 47.3679 30.4665ZM25.1255 33.1771V43.0899H18.3331C17.7205 43.0899 17.2221 42.5906 17.2221 41.9768V36.0318C17.2221 34.1906 18.7173 32.6926 20.5551 32.6926H24.2673C24.5689 32.6926 24.861 32.7337 25.139 32.8093C25.131 32.9311 25.1255 33.0535 25.1255 33.1771ZM40.5755 43.0899H27.3476V33.177C27.3476 31.3358 28.8428 29.8379 30.6807 29.8379H37.2424C39.0802 29.8379 40.5755 31.3358 40.5755 33.177V43.0899ZM43.6557 32.6926C43.6557 33.3063 48.2631 32.4693 47.6505 32.4693L42.7975 43.0899V33.177C42.7975 33.0533 42.792 32.9309 42.784 32.8092C43.0621 32.7337 43.3541 32.6926 43.6557 32.6926H47.3679C49.2058 32.6926 43.5585 30.6281 43.5585 32.4693L43.6557 32.6926Z" fill="#F2A985"/>
<path d="M33.4473 24.8C36.3744 24.8 38.7473 22.4271 38.7473 19.5C38.7473 16.5729 36.3744 14.2 33.4473 14.2C30.5202 14.2 28.1473 16.5729 28.1473 19.5C28.1473 22.4271 30.5202 24.8 33.4473 24.8Z" stroke="#F2A985" stroke-width="2.4"/>
<path d="M21.4473 27.85C23.2974 27.85 24.7973 26.3502 24.7973 24.5C24.7973 22.6499 23.2974 21.15 21.4473 21.15C19.5971 21.15 18.0973 22.6499 18.0973 24.5C18.0973 26.3502 19.5971 27.85 21.4473 27.85Z" fill="#FAFAFA" stroke="#F2A985" stroke-width="2.3"/>
<path d="M42 30H51.3828V46.6039H42V30Z" fill="#FAFAFA"/>
<path d="M39.4895 46.0485L45.4862 36.0931C46.5442 34.3367 45.7164 32.0114 43.8573 31.5177C42.6915 31.2081 41.4579 31.7382 40.7893 32.8361L34.7263 42.7912C33.9554 44.057 34.1406 45.722 35.163 46.7178C35.4449 46.9923 35.7773 47.2009 36.1372 47.3309C37.3754 47.7779 38.7633 47.2541 39.4895 46.0485Z" fill="#F2A985" stroke="#FAFAFA" stroke-width="2"/>
<path d="M47.0066 31.6499C47.043 31.6407 47.0792 31.6307 47.1152 31.6199C47.7194 31.439 48.2646 31.0339 48.6629 30.5098C49.143 29.8781 49.2212 29.1538 49.5111 28.4285C49.8746 27.5191 50.6216 26.9039 51.3903 26.4067C50.5796 25.182 48.6531 25.1581 47.4707 25.4799C47.4282 25.4914 47.3857 25.5036 47.3429 25.5164C46.0123 25.9149 44.5724 26.9153 44.268 28.5133C43.9338 30.2676 45.2986 32.08 47.0066 31.6499Z" fill="#F2A985"/>
</g>
<defs>
<clipPath id="clip0_84_406">
<rect width="62" height="62" fill="white"/>
</clipPath>
</defs>
</svg>
