<svg width="62" height="62" viewBox="0 0 62 62" fill="none" xmlns="http://www.w3.org/2000/svg">
<g clip-path="url(#clip0_84_356)">
<path d="M31 62C48.1208 62 62 48.1208 62 31C62 13.8792 48.1208 0 31 0C13.8792 0 0 13.8792 0 31C0 48.1208 13.8792 62 31 62Z" fill="#F8F9FA"/>
<path d="M33.2 35.2C34.1 36.3 36.7 39.4 41.5 39.4C47.3 39.4 49.1 33.7 49.1 31C49.1 29.2 48.8 27.7 48.1 26.4C47.2 24.6 45.2 22.4 41 22.4C35.9 22.4 32.5 26.6 29.5 30.4C26.8 33.7 24.3 36.8 21.1 36.8C17.7 36.8 15.7 33.4 15.7 30.9C15.7 28.6 18 25.3 21.5 25.3C24.8 25.3 26.6 27.9 26.8 28.2C27.2 28.9 28.1 29.1 28.8 28.7C29.5 28.3 29.7 27.4 29.3 26.7C29.2 26.5 26.7 22.5 21.6 22.5C16.5 22.5 13 27 13 31C13 35.1 16.4 39.8 21.3 39.8C25.9 39.8 28.9 36 31.9 32.3C34.8 28.8 37.5 25.4 41.2 25.4C43.5 25.4 44.9 26.2 45.8 27.8C46.5 29.2 46.5 30.7 46.5 31.2C46.5 31.5 46.3 33 45.6 34.4C44.7 36 43.5 36.8 41.7 36.8C38.2 36.8 36.4 34.6 35.7 33.7C35.5 33.5 35.4 33.4 35.3 33.2C35 33 34.6 32.8 34.3 32.9C33.9 32.9 33.6 33.1 33.3 33.4C32.8 34 32.8 34.8 33.4 35.4L33.2 35.2Z" fill="#797CF2"/>
</g>
<defs>
<clipPath id="clip0_84_356">
<rect width="62" height="62" fill="white"/>
</clipPath>
</defs>
</svg>
