<svg width="62" height="62" viewBox="0 0 62 62" fill="none" xmlns="http://www.w3.org/2000/svg">
<g clip-path="url(#clip0_84_445)">
<path d="M31 62C13.8792 62 0 48.1208 0 31C0 13.8792 13.8792 0 31 0C48.1208 0 62 13.8792 62 31C62 48.1208 48.1208 62 31 62Z" fill="#F8F9FA"/>
<path d="M39.5055 21.0003L37.9569 23.0455C41.2948 25.7157 42.9598 30.0387 42.3027 34.3287C41.8213 37.4767 40.176 40.2435 37.6704 42.1199C35.1639 43.9953 32.0978 44.7576 29.0359 44.2601C22.7151 43.2369 18.3811 37.1178 19.3747 30.619C19.8561 27.4707 21.5018 24.7037 24.0078 22.8278C26.1958 21.1903 28.8103 20.4038 31.4764 20.5598L29.2973 22.9102L30.9139 24.4963L34.3538 20.7835L34.3547 20.7848L35.8957 19.1211L34.2803 17.5367L34.2794 17.5373L30.6694 14L29.1272 15.6637L31.4794 17.9671C28.2818 17.8116 25.1498 18.7679 22.5244 20.7332C19.4742 23.0165 17.4715 26.3841 16.8851 30.2167C15.6755 38.1266 20.9502 45.5756 28.6439 46.8203C29.3876 46.9409 30.1308 47 30.8693 47C33.8328 47 36.7124 46.0424 39.1538 44.2145C42.2043 41.9308 44.2067 38.5632 44.7931 34.7315C45.593 29.5109 43.5668 24.2492 39.5055 21.0003Z" fill="#61F2E6"/>
<path d="M32.2242 39.8831V39.8826H32.2243V38.3913C33.9443 38.1939 35.6177 37.0769 35.6177 34.9562C35.6177 32.0748 33.0117 31.7444 31.1082 31.5034C29.8911 31.3539 28.9596 31.1804 28.9596 30.4223C28.9596 29.3685 30.4045 29.2549 31.0258 29.2549C31.948 29.2549 32.932 29.7006 33.2663 30.2694L33.3634 30.4348L35.2753 29.5252L35.1807 29.3269C34.4683 27.8294 33.1914 27.3962 32.2238 27.2213V25.9082H29.985V27.2156C27.9008 27.5317 26.663 28.721 26.663 30.4223C26.663 33.1966 29.1132 33.4781 30.9008 33.6842C32.4938 33.8773 33.2355 34.282 33.2355 34.9562C33.2355 36.2442 31.5004 36.3449 30.9685 36.3449C29.7846 36.3449 28.6431 35.7376 28.3129 34.9312L28.2309 34.7321L26.1538 35.6374L26.2366 35.8365C26.8517 37.3166 28.1789 38.2441 29.9854 38.4635V39.8831H32.2242Z" fill="#61F2E6"/>
</g>
<defs>
<clipPath id="clip0_84_445">
<rect width="62" height="62" fill="white"/>
</clipPath>
</defs>
</svg>
