<svg width="62" height="62" viewBox="0 0 62 62" fill="none" xmlns="http://www.w3.org/2000/svg">
<g clip-path="url(#clip0_84_374)">
<path d="M31 62C13.8792 62 0 48.1208 0 31C0 13.8792 13.8792 0 31 0C48.1208 0 62 13.8792 62 31C62 48.1208 48.1208 62 31 62Z" fill="#F8F9FA"/>
<path d="M20.0639 26.9231L36.6505 16.5552L39.3327 27.7936L42.3988 27.4828L46.5742 38.1557L26.231 46.0784L20.0639 26.9231Z" fill="#FFF6D1"/>
<path d="M14.845 26.2087L28.2147 15.1099L34.114 27.0793L36.9546 34.896L36.0949 36.5753L23.2233 46.9131L14.845 26.2087Z" fill="white"/>
<path d="M27.8336 12.9083L14.0559 24.4804C13.5972 24.871 13.4137 25.5208 13.6349 26.1166L21.7333 47.8061C21.7536 47.8604 21.7767 47.9122 21.8027 47.9616L21.799 47.9552L21.8208 47.9933C21.8387 48.0274 21.8585 48.0603 21.8802 48.0919L21.9061 48.1309C21.928 48.1625 21.952 48.1933 21.9765 48.2252L22.006 48.2603C22.0322 48.2902 22.0591 48.3185 22.0906 48.349L22.1182 48.3758C22.1569 48.4118 22.1979 48.4451 22.2409 48.4755L22.2359 48.4723C22.2787 48.5035 22.3233 48.532 22.3696 48.5575L22.3676 48.5556L22.4069 48.5766L22.5054 48.6249L22.5558 48.6454C22.5896 48.6591 22.6241 48.6707 22.6592 48.6802L22.6895 48.6905L22.706 48.6944C22.7507 48.7063 22.7961 48.7158 22.8423 48.7228L22.8573 48.7261C22.9068 48.7338 22.9567 48.7382 23.0068 48.7391H23.0168L23.0406 48.7389C23.0846 48.7399 23.1284 48.7383 23.1721 48.7343C23.1853 48.7291 23.2014 48.7319 23.2165 48.7286C23.2528 48.7249 23.2883 48.7188 23.3281 48.7111C23.3446 48.7047 23.3632 48.7039 23.3805 48.6998L23.4771 48.6725C23.5087 48.6628 23.5144 48.658 23.5331 48.6508L47.2598 39.4196C47.6077 39.2843 47.8886 39.0126 48.0411 38.6641C48.1936 38.3156 48.2052 37.9184 48.0735 37.5595L44.0241 26.7141C43.8899 26.3546 43.6224 26.0637 43.2805 25.9056C42.9386 25.7474 42.5502 25.7349 42.201 25.8708L40.884 26.3832L37.3407 16.8935C37.2065 16.534 36.939 16.2432 36.5971 16.085C36.2552 15.9269 35.8668 15.9144 35.5176 16.0503L31.5666 17.5874L30.0481 13.5204C29.9674 13.3052 29.8382 13.1124 29.6709 12.9582C29.5037 12.804 29.3033 12.6927 29.0864 12.6336C28.8695 12.5744 28.6422 12.5691 28.4235 12.6182C28.2048 12.6672 28.0009 12.7691 27.8287 12.9154L27.8362 12.9086L27.8336 12.9083ZM44.933 37.2275L30.6623 42.7796L37.7287 36.8449C37.9572 36.6528 38.1207 36.3915 38.1962 36.0979C38.2717 35.8044 38.2555 35.4933 38.1498 35.2087L32.5822 20.2975L35.2129 19.274L38.7562 28.7637C38.8904 29.1232 39.1579 29.4141 39.4998 29.5722C39.8417 29.7304 40.23 29.7428 40.5793 29.607L41.8952 29.095L44.933 37.2275ZM28.1164 16.4262L35.148 35.2587L23.6654 44.9015L16.6338 26.069L28.1164 16.4262Z" fill="#F2D455"/>
</g>
<defs>
<clipPath id="clip0_84_374">
<rect width="62" height="62" fill="white"/>
</clipPath>
</defs>
</svg>
