<svg width="62" height="62" viewBox="0 0 62 62" fill="none" xmlns="http://www.w3.org/2000/svg">
<g clip-path="url(#clip0_84_422)">
<path d="M0 31C0 48.1208 13.8792 62 31 62C48.1208 62 62 48.1208 62 31C62 13.8792 48.1208 0 31 0C13.8792 0 0 13.8792 0 31Z" fill="#F8F9FA"/>
<path d="M38.3721 32.582C34.4179 32.582 31.8011 35.7871 29.4925 38.6154C27.52 41.0316 25.6574 43.3131 23.3888 43.3131C21.0308 43.3131 19.5831 40.9105 19.5831 39.1882C19.5831 37.5913 21.1713 35.2706 23.6605 35.2706C26.0758 35.2706 27.3341 37.187 27.3976 37.2852C27.7889 37.913 28.6197 38.1105 29.2561 37.7257C29.8957 37.3395 30.0983 36.5123 29.7084 35.8783C29.6257 35.744 27.6365 32.5822 23.6605 32.5822C19.6595 32.5822 16.8711 36.0641 16.8711 39.1884C16.8711 42.4111 19.5478 46.0018 23.3887 46.0018C26.9508 46.0018 29.3147 43.1067 31.6004 40.3067C33.7148 37.7173 35.7121 35.2708 38.3721 35.2708C39.9548 35.2708 40.9947 35.8031 41.5506 36.8967C42.0322 37.8458 42.0319 38.9198 42.0315 39.2919C42.0315 39.5053 41.9178 40.5754 41.3912 41.539C40.7908 42.6367 39.9384 43.1477 38.7067 43.1477C36.2262 43.1477 34.8861 41.5493 34.3814 40.9473C34.2502 40.7906 34.1558 40.6779 34.0296 40.5708C33.4615 40.0884 32.6051 40.1531 32.1175 40.717C31.6473 41.2609 31.6926 42.0695 32.2062 42.5589C32.2306 42.5865 32.2601 42.6228 32.2952 42.6649C32.9529 43.4495 34.9529 45.8359 38.7061 45.8359C43.2677 45.8359 44.7429 41.4265 44.7429 39.2735C44.7433 37.9023 44.4843 36.6961 43.9722 35.6876C43.2533 34.2713 41.6977 32.582 38.3721 32.582Z" fill="#F2A985"/>
<path d="M39.5817 22.7745C39.5817 27.6205 35.6532 31.5489 30.8072 31.5489C25.9612 31.5489 22.0327 27.6205 22.0327 22.7745C22.0327 17.9285 25.9612 14 30.8072 14C35.6532 14 39.5817 17.9285 39.5817 22.7745Z" fill="#FFE7FE"/>
<path fill-rule="evenodd" clip-rule="evenodd" d="M30.8072 28.9136C34.1977 28.9136 36.9463 26.165 36.9463 22.7745C36.9463 19.3839 34.1977 16.6353 30.8072 16.6353C27.4166 16.6353 24.668 19.3839 24.668 22.7745C24.668 26.165 27.4166 28.9136 30.8072 28.9136ZM30.8072 31.5489C35.6532 31.5489 39.5817 27.6205 39.5817 22.7745C39.5817 17.9285 35.6532 14 30.8072 14C25.9612 14 22.0327 17.9285 22.0327 22.7745C22.0327 27.6205 25.9612 31.5489 30.8072 31.5489Z" fill="#F2A985"/>
</g>
<defs>
<clipPath id="clip0_84_422">
<rect width="62" height="62" fill="white"/>
</clipPath>
</defs>
</svg>
